<svg width="151" height="67" viewBox="0 0 151 67" fill="none" xmlns="http://www.w3.org/2000/svg">
<path d="M1.37074 5.7031L1.37429 3.88847H1.59446L3.34162 1.81816H5.07813L2.73082 4.55964H2.37216L1.37074 5.7031ZM1.93715e-07 7.27271V-2.24113e-05H1.51278V7.27271H1.93715e-07ZM3.40909 7.27271L1.80398 4.89699L2.8125 3.8281L5.18111 7.27271H3.40909ZM7.37571 7.37569C7.0277 7.37569 6.71757 7.31532 6.44531 7.19458C6.17306 7.07147 5.95762 6.89037 5.79901 6.65126C5.64276 6.40978 5.56463 6.10912 5.56463 5.74927C5.56463 5.44624 5.62027 5.19174 5.73153 4.98577C5.8428 4.77981 5.99432 4.61409 6.18608 4.48861C6.37784 4.36314 6.59564 4.26844 6.83949 4.20452C7.0857 4.1406 7.34375 4.09562 7.61364 4.06958C7.93087 4.03644 8.18655 4.00566 8.38068 3.97725C8.57481 3.94647 8.71567 3.90149 8.80327 3.84231C8.89086 3.78312 8.93466 3.69553 8.93466 3.57952V3.55822C8.93466 3.33331 8.86364 3.15931 8.72159 3.0362C8.58191 2.91309 8.38305 2.85154 8.125 2.85154C7.85275 2.85154 7.63613 2.91191 7.47514 3.03265C7.31416 3.15102 7.20762 3.30017 7.15554 3.48009L5.75639 3.36646C5.82741 3.03502 5.96709 2.74856 6.17543 2.50708C6.38376 2.26324 6.65246 2.07621 6.98153 1.946C7.31297 1.81342 7.6965 1.74714 8.1321 1.74714C8.43513 1.74714 8.72514 1.78265 9.00213 1.85367C9.28149 1.92469 9.52888 2.03478 9.74432 2.18393C9.96212 2.33307 10.1338 2.52484 10.2592 2.75921C10.3847 2.99122 10.4474 3.26939 10.4474 3.59373V7.27271H9.01278V6.51631H8.97017C8.88258 6.68677 8.76539 6.8371 8.61861 6.96731C8.47183 7.09515 8.29545 7.19576 8.08949 7.26915C7.88352 7.34018 7.6456 7.37569 7.37571 7.37569ZM7.80895 6.33165C8.03149 6.33165 8.22798 6.28786 8.39844 6.20026C8.56889 6.1103 8.70265 5.98956 8.79972 5.83805C8.89678 5.68653 8.94531 5.51489 8.94531 5.32313V4.7443C8.89796 4.77507 8.83286 4.80348 8.75 4.82952C8.66951 4.8532 8.57836 4.87569 8.47656 4.89699C8.37476 4.91593 8.27296 4.93369 8.17117 4.95026C8.06937 4.96447 7.97704 4.97749 7.89418 4.98932C7.71662 5.01537 7.56155 5.0568 7.42898 5.11361C7.2964 5.17043 7.19342 5.24737 7.12003 5.34444C7.04664 5.43913 7.00994 5.55751 7.00994 5.69955C7.00994 5.90552 7.08452 6.06295 7.23366 6.17185C7.38518 6.27839 7.57694 6.33165 7.80895 6.33165ZM11.6211 9.31816V1.81816H13.1126V2.73435H13.18C13.2463 2.58757 13.3422 2.43842 13.4677 2.28691C13.5955 2.13303 13.7612 2.00519 13.9648 1.90339C14.1708 1.79922 14.4265 1.74714 14.7319 1.74714C15.1296 1.74714 15.4966 1.8513 15.8327 2.05964C16.1689 2.2656 16.4376 2.57692 16.6388 2.99359C16.8401 3.40788 16.9407 3.92753 16.9407 4.55253C16.9407 5.16096 16.8424 5.67469 16.646 6.09373C16.4518 6.51039 16.1867 6.82645 15.8505 7.04188C15.5167 7.25495 15.1426 7.36148 14.7283 7.36148C14.4348 7.36148 14.185 7.31295 13.979 7.21589C13.7755 7.11882 13.6085 6.9969 13.4783 6.85012C13.3481 6.70097 13.2487 6.55064 13.18 6.39913H13.1339V9.31816H11.6211ZM13.1019 4.54543C13.1019 4.86977 13.1469 5.15268 13.2369 5.39415C13.3268 5.63563 13.457 5.82384 13.6275 5.95878C13.7979 6.09136 14.0051 6.15765 14.2489 6.15765C14.4951 6.15765 14.7035 6.09018 14.8739 5.95523C15.0444 5.81792 15.1734 5.62853 15.261 5.38705C15.351 5.14321 15.396 4.86267 15.396 4.54543C15.396 4.23056 15.3522 3.95358 15.2646 3.71447C15.177 3.47536 15.0479 3.28833 14.8775 3.15339C14.707 3.01844 14.4975 2.95097 14.2489 2.95097C14.0027 2.95097 13.7944 3.01608 13.6239 3.14628C13.4558 3.27649 13.3268 3.46115 13.2369 3.70026C13.1469 3.93937 13.1019 4.2211 13.1019 4.54543ZM17.9492 7.27271V1.81816H19.4158V2.76986H19.4727C19.5721 2.43132 19.739 2.17564 19.9734 2.00282C20.2077 1.82763 20.4776 1.74003 20.783 1.74003C20.8588 1.74003 20.9405 1.74477 21.0281 1.75424C21.1156 1.76371 21.1926 1.77673 21.2589 1.7933V3.13563C21.1879 3.11432 21.0896 3.09538 20.9641 3.07881C20.8387 3.06224 20.7238 3.05396 20.6197 3.05396C20.3971 3.05396 20.1983 3.10249 20.0231 3.19955C19.8503 3.29425 19.713 3.42682 19.6112 3.59728C19.5117 3.76773 19.462 3.96423 19.462 4.18677V7.27271H17.9492ZM23.4402 7.37569C23.0922 7.37569 22.782 7.31532 22.5098 7.19458C22.2375 7.07147 22.0221 6.89037 21.8635 6.65126C21.7072 6.40978 21.6291 6.10912 21.6291 5.74927C21.6291 5.44624 21.6847 5.19174 21.796 4.98577C21.9073 4.77981 22.0588 4.61409 22.2505 4.48861C22.4423 4.36314 22.6601 4.26844 22.9039 4.20452C23.1502 4.1406 23.4082 4.09562 23.6781 4.06958C23.9953 4.03644 24.251 4.00566 24.4451 3.97725C24.6393 3.94647 24.7801 3.90149 24.8677 3.84231C24.9553 3.78312 24.9991 3.69553 24.9991 3.57952V3.55822C24.9991 3.33331 24.9281 3.15931 24.786 3.0362C24.6464 2.91309 24.4475 2.85154 24.1895 2.85154C23.9172 2.85154 23.7006 2.91191 23.5396 3.03265C23.3786 3.15102 23.2721 3.30017 23.22 3.48009L21.8208 3.36646C21.8919 3.03502 22.0315 2.74856 22.2399 2.50708C22.4482 2.26324 22.7169 2.07621 23.046 1.946C23.3774 1.81342 23.7609 1.74714 24.1966 1.74714C24.4996 1.74714 24.7896 1.78265 25.0666 1.85367C25.3459 1.92469 25.5933 2.03478 25.8088 2.18393C26.0266 2.33307 26.1982 2.52484 26.3237 2.75921C26.4492 2.99122 26.5119 3.26939 26.5119 3.59373V7.27271H25.0772V6.51631H25.0346C24.947 6.68677 24.8298 6.8371 24.6831 6.96731C24.5363 7.09515 24.3599 7.19576 24.1539 7.26915C23.948 7.34018 23.7101 7.37569 23.4402 7.37569ZM23.8734 6.33165C24.0959 6.33165 24.2924 6.28786 24.4629 6.20026C24.6333 6.1103 24.7671 5.98956 24.8642 5.83805C24.9612 5.68653 25.0098 5.51489 25.0098 5.32313V4.7443C24.9624 4.77507 24.8973 4.80348 24.8145 4.82952C24.734 4.8532 24.6428 4.87569 24.541 4.89699C24.4392 4.91593 24.3374 4.93369 24.2356 4.95026C24.1338 4.96447 24.0415 4.97749 23.9586 4.98932C23.7811 5.01537 23.626 5.0568 23.4934 5.11361C23.3609 5.17043 23.2579 5.24737 23.1845 5.34444C23.1111 5.43913 23.0744 5.55751 23.0744 5.69955C23.0744 5.90552 23.149 6.06295 23.2981 6.17185C23.4496 6.27839 23.6414 6.33165 23.8734 6.33165ZM30.15 7.37924C29.5984 7.37924 29.1214 7.26205 28.7189 7.02768C28.3188 6.79093 28.0099 6.46186 27.7921 6.04046C27.5743 5.61669 27.4654 5.12545 27.4654 4.56674C27.4654 4.00329 27.5743 3.51087 27.7921 3.08947C28.0099 2.6657 28.3188 2.33663 28.7189 2.10225C29.1214 1.86551 29.5984 1.74714 30.15 1.74714C30.7016 1.74714 31.1775 1.86551 31.5776 2.10225C31.9801 2.33663 32.2902 2.6657 32.508 3.08947C32.7258 3.51087 32.8347 4.00329 32.8347 4.56674C32.8347 5.12545 32.7258 5.61669 32.508 6.04046C32.2902 6.46186 31.9801 6.79093 31.5776 7.02768C31.1775 7.26205 30.7016 7.37924 30.15 7.37924ZM30.1571 6.20736C30.4081 6.20736 30.6176 6.13634 30.7857 5.9943C30.9538 5.84988 31.0804 5.65339 31.1657 5.40481C31.2533 5.15623 31.2971 4.87332 31.2971 4.55609C31.2971 4.23885 31.2533 3.95594 31.1657 3.70736C31.0804 3.45878 30.9538 3.26229 30.7857 3.11788C30.6176 2.97346 30.4081 2.90126 30.1571 2.90126C29.9038 2.90126 29.6908 2.97346 29.5179 3.11788C29.3475 3.26229 29.2185 3.45878 29.1309 3.70736C29.0456 3.95594 29.003 4.23885 29.003 4.55609C29.003 4.87332 29.0456 5.15623 29.1309 5.40481C29.2185 5.65339 29.3475 5.84988 29.5179 5.9943C29.6908 6.13634 29.9038 6.20736 30.1571 6.20736ZM34.7026 7.36503C34.4682 7.36503 34.267 7.28217 34.0989 7.11646C33.9332 6.94837 33.8503 6.74714 33.8503 6.51276C33.8503 6.28075 33.9332 6.08189 34.0989 5.91617C34.267 5.75045 34.4682 5.66759 34.7026 5.66759C34.9299 5.66759 35.1287 5.75045 35.2992 5.91617C35.4696 6.08189 35.5549 6.28075 35.5549 6.51276C35.5549 6.66901 35.5146 6.81224 35.4341 6.94245C35.356 7.07029 35.253 7.17327 35.1252 7.2514C34.9973 7.32716 34.8565 7.36503 34.7026 7.36503ZM36.7969 7.27271V1.81816H38.2386V2.78052H38.3026C38.4162 2.46092 38.6056 2.20878 38.8707 2.02413C39.1359 1.83947 39.4531 1.74714 39.8224 1.74714C40.1965 1.74714 40.5149 1.84065 40.7777 2.02768C41.0405 2.21234 41.2157 2.46328 41.3033 2.78052H41.3601C41.4714 2.46802 41.6726 2.21825 41.9638 2.03123C42.2573 1.84183 42.6042 1.74714 43.0043 1.74714C43.5133 1.74714 43.9264 1.90931 44.2436 2.23364C44.5632 2.55561 44.723 3.01252 44.723 3.60438V7.27271H43.2138V3.90268C43.2138 3.59965 43.1333 3.37237 42.9723 3.22086C42.8113 3.06934 42.6101 2.99359 42.3686 2.99359C42.094 2.99359 41.8797 3.08118 41.7259 3.25637C41.572 3.42919 41.495 3.65765 41.495 3.94174V7.27271H40.0284V3.87072C40.0284 3.6032 39.9515 3.39013 39.7976 3.23151C39.6461 3.07289 39.446 2.99359 39.1974 2.99359C39.0294 2.99359 38.8778 3.0362 38.7429 3.12143C38.6103 3.20429 38.505 3.32147 38.4268 3.47299C38.3487 3.62214 38.3097 3.79733 38.3097 3.99856V7.27271H36.7969ZM47.4734 7.37569C47.1254 7.37569 46.8152 7.31532 46.543 7.19458C46.2707 7.07147 46.0553 6.89037 45.8967 6.65126C45.7404 6.40978 45.6623 6.10912 45.6623 5.74927C45.6623 5.44624 45.7179 5.19174 45.8292 4.98577C45.9405 4.77981 46.092 4.61409 46.2837 4.48861C46.4755 4.36314 46.6933 4.26844 46.9371 4.20452C47.1834 4.1406 47.4414 4.09562 47.7113 4.06958C48.0285 4.03644 48.2842 4.00566 48.4783 3.97725C48.6725 3.94647 48.8133 3.90149 48.9009 3.84231C48.9885 3.78312 49.0323 3.69553 49.0323 3.57952V3.55822C49.0323 3.33331 48.9613 3.15931 48.8192 3.0362C48.6796 2.91309 48.4807 2.85154 48.2227 2.85154C47.9504 2.85154 47.7338 2.91191 47.5728 3.03265C47.4118 3.15102 47.3053 3.30017 47.2532 3.48009L45.854 3.36646C45.9251 3.03502 46.0647 2.74856 46.2731 2.50708C46.4814 2.26324 46.7501 2.07621 47.0792 1.946C47.4106 1.81342 47.7942 1.74714 48.2298 1.74714C48.5328 1.74714 48.8228 1.78265 49.0998 1.85367C49.3791 1.92469 49.6265 2.03478 49.842 2.18393C50.0598 2.33307 50.2314 2.52484 50.3569 2.75921C50.4824 2.99122 50.5451 3.26939 50.5451 3.59373V7.27271H49.1104V6.51631H49.0678C48.9802 6.68677 48.863 6.8371 48.7163 6.96731C48.5695 7.09515 48.3931 7.19576 48.1871 7.26915C47.9812 7.34018 47.7433 7.37569 47.4734 7.37569ZM47.9066 6.33165C48.1291 6.33165 48.3256 6.28786 48.4961 6.20026C48.6665 6.1103 48.8003 5.98956 48.8974 5.83805C48.9944 5.68653 49.043 5.51489 49.043 5.32313V4.7443C48.9956 4.77507 48.9305 4.80348 48.8477 4.82952C48.7672 4.8532 48.676 4.87569 48.5742 4.89699C48.4724 4.91593 48.3706 4.93369 48.2688 4.95026C48.167 4.96447 48.0747 4.97749 47.9918 4.98932C47.8143 5.01537 47.6592 5.0568 47.5266 5.11361C47.3941 5.17043 47.2911 5.24737 47.2177 5.34444C47.1443 5.43913 47.1076 5.55751 47.1076 5.69955C47.1076 5.90552 47.1822 6.06295 47.3313 6.17185C47.4828 6.27839 47.6746 6.33165 47.9066 6.33165ZM51.7188 9.31816V1.81816H53.2102V2.73435H53.2777C53.344 2.58757 53.4399 2.43842 53.5653 2.28691C53.6932 2.13303 53.8589 2.00519 54.0625 1.90339C54.2685 1.79922 54.5241 1.74714 54.8295 1.74714C55.2273 1.74714 55.5942 1.8513 55.9304 2.05964C56.2666 2.2656 56.5353 2.57692 56.7365 2.99359C56.9377 3.40788 57.0384 3.92753 57.0384 4.55253C57.0384 5.16096 56.9401 5.67469 56.7436 6.09373C56.5495 6.51039 56.2843 6.82645 55.9482 7.04188C55.6143 7.25495 55.2403 7.36148 54.826 7.36148C54.5324 7.36148 54.2827 7.31295 54.0767 7.21589C53.8731 7.11882 53.7062 6.9969 53.576 6.85012C53.4458 6.70097 53.3464 6.55064 53.2777 6.39913H53.2315V9.31816H51.7188ZM53.1996 4.54543C53.1996 4.86977 53.2446 5.15268 53.3345 5.39415C53.4245 5.63563 53.5547 5.82384 53.7251 5.95878C53.8956 6.09136 54.1027 6.15765 54.3466 6.15765C54.5928 6.15765 54.8011 6.09018 54.9716 5.95523C55.142 5.81792 55.2711 5.62853 55.3587 5.38705C55.4486 5.14321 55.4936 4.86267 55.4936 4.54543C55.4936 4.23056 55.4498 3.95358 55.3622 3.71447C55.2746 3.47536 55.1456 3.28833 54.9751 3.15339C54.8047 3.01844 54.5952 2.95097 54.3466 2.95097C54.1004 2.95097 53.892 3.01608 53.7216 3.14628C53.5535 3.27649 53.4245 3.46115 53.3345 3.70026C53.2446 3.93937 53.1996 4.2211 53.1996 4.54543ZM7.03631 66.2727V59.1527C7.03631 58.5127 6.86297 58.0527 6.51631 57.7727C6.16964 57.4927 5.63631 57.3527 4.91631 57.3527C4.22297 57.3527 3.54297 57.4594 2.87631 57.6727C2.22297 57.8727 1.65631 58.1127 1.17631 58.3927V55.9127C1.56297 55.726 2.10964 55.5394 2.81631 55.3527C3.52297 55.1527 4.33631 55.0527 5.25631 55.0527C5.96297 55.0527 6.59631 55.1394 7.15631 55.3127C7.72964 55.486 8.14297 55.826 8.39631 56.3327C8.95631 56.506 9.35631 56.846 9.59631 57.3527C9.84964 57.846 9.97631 58.486 9.97631 59.2727V66.2727H7.03631ZM3.75631 66.4727C2.60964 66.4727 1.72297 66.1994 1.09631 65.6527C0.482974 65.106 0.176307 64.3394 0.176307 63.3527C0.176307 62.286 0.556307 61.4327 1.31631 60.7927C2.08964 60.1527 3.30297 59.766 4.95631 59.6327L7.51631 59.4327V61.5927L5.29631 61.8127C4.49631 61.8927 3.93631 62.0527 3.61631 62.2927C3.30964 62.5327 3.15631 62.8527 3.15631 63.2527C3.15631 63.6527 3.28297 63.9527 3.53631 64.1527C3.80297 64.3527 4.14297 64.4527 4.55631 64.4527C4.71631 64.4527 4.87631 64.4394 5.03631 64.4127C5.19631 64.3727 5.34297 64.3327 5.47631 64.2927L5.73631 66.1727C5.48297 66.266 5.18297 66.3394 4.83631 66.3927C4.48964 66.446 4.12964 66.4727 3.75631 66.4727ZM8.33631 57.4927L6.69631 56.1127C7.16297 55.9527 7.52964 55.7527 7.79631 55.5127C8.06297 55.2594 8.20297 54.9527 8.21631 54.5927H10.8363C10.8363 55.006 10.7496 55.406 10.5763 55.7927C10.4163 56.166 10.1496 56.4994 9.77631 56.7927C9.41631 57.086 8.93631 57.3194 8.33631 57.4927ZM14.7076 59.8127C14.0942 59.8127 13.6076 59.7194 13.2476 59.5327C12.8876 59.346 12.6276 59.0994 12.4676 58.7927C12.3076 58.4727 12.2276 58.1394 12.2276 57.7927C12.2276 57.566 12.2609 57.3327 12.3276 57.0927C12.3942 56.8394 12.4942 56.5927 12.6276 56.3527L14.8076 56.6327C14.7809 56.726 14.7542 56.826 14.7276 56.9327C14.7142 57.0394 14.7076 57.1527 14.7076 57.2727C14.7076 57.446 14.7609 57.586 14.8676 57.6927C14.9742 57.786 15.1609 57.8327 15.4276 57.8327H17.6876V59.8127H14.7076ZM14.7076 65.4127C14.0942 65.4127 13.6076 65.3194 13.2476 65.1327C12.8876 64.946 12.6276 64.6994 12.4676 64.3927C12.3076 64.0727 12.2276 63.7394 12.2276 63.3927C12.2276 63.166 12.2609 62.9327 12.3276 62.6927C12.3942 62.4394 12.4942 62.1927 12.6276 61.9527L14.8076 62.2327C14.7809 62.326 14.7542 62.426 14.7276 62.5327C14.7142 62.6394 14.7076 62.7527 14.7076 62.8727C14.7076 63.046 14.7609 63.186 14.8676 63.2927C14.9742 63.386 15.1609 63.4327 15.4276 63.4327H17.6876V65.4127H14.7076ZM20.1355 66.2727V55.3127H22.3355L22.7355 57.0327H22.8955C23.1222 56.486 23.5155 56.0327 24.0755 55.6727C24.6355 55.2994 25.3622 55.1127 26.2555 55.1127C27.1089 55.1127 27.8155 55.266 28.3755 55.5727C28.9355 55.866 29.3555 56.3194 29.6355 56.9327C29.9289 57.5327 30.0755 58.2927 30.0755 59.2127V66.2727H27.0755V59.8127C27.0755 59.066 26.9222 58.5327 26.6155 58.2127C26.3222 57.8794 25.8889 57.7127 25.3155 57.7127C24.8489 57.7127 24.4489 57.8394 24.1155 58.0927C23.7955 58.346 23.5489 58.7194 23.3755 59.2127C23.2155 59.6927 23.1355 60.2994 23.1355 61.0327V66.2727H20.1355ZM23.5927 53.8127V52.8127C23.7794 52.7594 23.986 52.686 24.2127 52.5927C24.4394 52.4994 24.6394 52.3727 24.8127 52.2127C24.986 52.0527 25.0727 51.8527 25.0727 51.6127C25.0727 51.426 25.0194 51.2794 24.9127 51.1727C24.806 51.066 24.6727 51.0127 24.5127 51.0127C24.406 51.0127 24.2927 51.0327 24.1727 51.0727C24.0527 51.1127 23.946 51.1527 23.8527 51.1927L23.4727 49.8527C23.7394 49.626 24.0727 49.4794 24.4727 49.4127C24.8594 49.3327 25.186 49.2927 25.4527 49.2927C26.0527 49.2927 26.526 49.4327 26.8727 49.7127C27.206 49.9927 27.3727 50.406 27.3727 50.9527C27.3727 51.246 27.2994 51.5194 27.1527 51.7727C26.9927 52.026 26.7527 52.2327 26.4327 52.3927L26.3527 51.8727H30.1327V53.8127H23.5927ZM37.2266 66.5327C35.6 66.5327 34.3933 66.1394 33.6066 65.3527C32.82 64.5527 32.4266 63.3727 32.4266 61.8127C32.4266 61.546 32.4333 61.226 32.4466 60.8527C32.4733 60.466 32.5066 60.126 32.5466 59.8327H37.3466V61.7327H35.3666V62.0127C35.3666 62.546 35.4333 62.986 35.5666 63.3327C35.7 63.666 35.9 63.9127 36.1666 64.0727C36.4466 64.2327 36.7933 64.3127 37.2066 64.3127C37.66 64.3127 38.04 64.2127 38.3466 64.0127C38.6666 63.8127 38.9066 63.4727 39.0666 62.9927C39.24 62.5127 39.3266 61.8527 39.3266 61.0127C39.3266 60.226 39.2333 59.5727 39.0466 59.0527C38.8733 58.5194 38.5733 58.1194 38.1466 57.8527C37.7333 57.586 37.16 57.4527 36.4266 57.4527C36.0266 57.4527 35.6133 57.4994 35.1866 57.5927C34.76 57.6727 34.3533 57.7794 33.9666 57.9127C33.5933 58.046 33.2666 58.1927 32.9866 58.3527V55.8527C33.28 55.6927 33.64 55.5527 34.0666 55.4327C34.5066 55.3127 34.98 55.2194 35.4866 55.1527C35.9933 55.086 36.4933 55.0527 36.9866 55.0527C38.28 55.0527 39.32 55.2927 40.1066 55.7727C40.9066 56.2394 41.4866 56.906 41.8466 57.7727C42.22 58.6394 42.4066 59.666 42.4066 60.8527C42.4066 62.066 42.2266 63.0994 41.8666 63.9527C41.52 64.7927 40.9666 65.4327 40.2066 65.8727C39.4466 66.3127 38.4533 66.5327 37.2266 66.5327ZM48.4621 66.4727C47.6488 66.4727 46.9621 66.3194 46.4021 66.0127C45.8554 65.6927 45.4354 65.2194 45.1421 64.5927C44.8621 63.966 44.7221 63.1994 44.7221 62.2927V55.3127H47.7221V61.7727C47.7221 62.506 47.8688 63.0394 48.1621 63.3727C48.4554 63.706 48.8821 63.8727 49.4421 63.8727C50.1488 63.8727 50.6954 63.606 51.0821 63.0727C51.4688 62.526 51.6621 61.686 51.6621 60.5527V55.3127H54.6621V66.2727H52.3821L52.0621 64.5927H51.8821C51.6554 65.126 51.2621 65.5727 50.7021 65.9327C50.1554 66.2927 49.4088 66.4727 48.4621 66.4727ZM57.6518 66.2727V59.7727C57.6518 58.2394 58.0584 57.0727 58.8718 56.2727C59.6851 55.4594 60.9718 55.0527 62.7318 55.0527C64.5051 55.0527 65.7851 55.4594 66.5718 56.2727C67.3718 57.0727 67.7718 58.2394 67.7718 59.7727V66.2727H64.7918V59.7327C64.7918 59.026 64.6251 58.4727 64.2918 58.0727C63.9718 57.6594 63.4384 57.4527 62.6918 57.4527C61.9584 57.4527 61.4251 57.6594 61.0918 58.0727C60.7718 58.4727 60.6118 59.026 60.6118 59.7327V61.4727L60.6718 61.4927C60.9251 60.9727 61.2251 60.6327 61.5718 60.4727C61.9318 60.2994 62.4184 60.2127 63.0318 60.2127H63.4918V62.4527H63.0318C62.3651 62.4527 61.8584 62.566 61.5118 62.7927C61.1651 63.0194 60.9251 63.3194 60.7918 63.6927C60.6718 64.0527 60.6118 64.4594 60.6118 64.9127V66.2727H57.6518ZM64.5847 53.7927V49.2527H67.3447V53.7927H64.5847ZM73.4815 66.2727V59.0327C73.4815 58.4727 73.3481 58.066 73.0815 57.8127C72.8281 57.5594 72.4081 57.4327 71.8215 57.4327C71.3815 57.4327 70.9748 57.4927 70.6015 57.6127C70.2415 57.7327 69.9015 57.8794 69.5815 58.0527V55.6527C69.8748 55.5194 70.2881 55.386 70.8215 55.2527C71.3548 55.1194 71.9815 55.0527 72.7015 55.0527C73.4348 55.0527 74.0815 55.1594 74.6415 55.3727C75.2148 55.586 75.6615 55.946 75.9815 56.4527C76.3148 56.946 76.4815 57.626 76.4815 58.4927V66.2727H73.4815ZM79.2729 66.2727V59.7727C79.2729 58.2394 79.6795 57.0727 80.4929 56.2727C81.3062 55.4594 82.5929 55.0527 84.3529 55.0527C86.1262 55.0527 87.4062 55.4594 88.1929 56.2727C88.9929 57.0727 89.3929 58.2394 89.3929 59.7727V66.2727H86.4129V59.7327C86.4129 59.026 86.2462 58.4727 85.9129 58.0727C85.5929 57.6594 85.0595 57.4527 84.3129 57.4527C83.5795 57.4527 83.0462 57.6594 82.7129 58.0727C82.3929 58.4727 82.2329 59.026 82.2329 59.7327V61.4727L82.2929 61.4927C82.5462 60.9727 82.8462 60.6327 83.1929 60.4727C83.5529 60.2994 84.0395 60.2127 84.6529 60.2127H85.1129V62.4527H84.6529C83.9862 62.4527 83.4795 62.566 83.1329 62.7927C82.7862 63.0194 82.5462 63.3194 82.4129 63.6927C82.2929 64.0527 82.2329 64.4594 82.2329 64.9127V66.2727H79.2729ZM95.9626 66.5327C95.1759 66.5327 94.3826 66.446 93.5826 66.2727C92.7959 66.0994 92.0959 65.8527 91.4826 65.5327L92.3226 63.1527C92.5892 63.2994 92.9092 63.4527 93.2826 63.6127C93.6559 63.7727 94.0626 63.906 94.5026 64.0127C94.9426 64.1194 95.3892 64.1727 95.8426 64.1727C96.3759 64.1727 96.7759 64.0994 97.0426 63.9527C97.3226 63.7927 97.4626 63.5527 97.4626 63.2327C97.4626 62.9927 97.3692 62.7994 97.1826 62.6527C97.0092 62.4927 96.7492 62.346 96.4026 62.2127C96.0559 62.066 95.6426 61.9127 95.1626 61.7527C94.4559 61.4994 93.8492 61.226 93.3426 60.9327C92.8359 60.6394 92.4426 60.2794 92.1626 59.8527C91.8959 59.426 91.7626 58.8927 91.7626 58.2527C91.7626 57.5194 91.9492 56.9194 92.3226 56.4527C92.6959 55.986 93.2226 55.6394 93.9026 55.4127C94.5826 55.1727 95.3759 55.0527 96.2826 55.0527C97.0292 55.0527 97.7026 55.1127 98.3026 55.2327C98.9026 55.3527 99.3692 55.506 99.7026 55.6927V58.0527C99.4759 57.946 99.1759 57.8394 98.8026 57.7327C98.4426 57.626 98.0492 57.5394 97.6226 57.4727C97.2092 57.3927 96.8092 57.3527 96.4226 57.3527C95.8759 57.3527 95.4626 57.426 95.1826 57.5727C94.9026 57.7194 94.7626 57.926 94.7626 58.1927C94.7626 58.406 94.8559 58.586 95.0426 58.7327C95.2426 58.8794 95.5292 59.0194 95.9026 59.1527C96.2759 59.2727 96.7226 59.426 97.2426 59.6127C97.9359 59.8527 98.5226 60.1194 99.0026 60.4127C99.4826 60.706 99.8426 61.066 100.083 61.4927C100.336 61.9194 100.463 62.446 100.463 63.0727C100.463 63.6727 100.323 64.2394 100.043 64.7727C99.7759 65.2927 99.3159 65.7194 98.6626 66.0527C98.0092 66.3727 97.1092 66.5327 95.9626 66.5327ZM106.914 66.5327C105.287 66.5327 104.081 66.1394 103.294 65.3527C102.507 64.5527 102.114 63.3727 102.114 61.8127C102.114 61.546 102.121 61.226 102.134 60.8527C102.161 60.466 102.194 60.126 102.234 59.8327H107.034V61.7327H105.054V62.0127C105.054 62.546 105.121 62.986 105.254 63.3327C105.387 63.666 105.587 63.9127 105.854 64.0727C106.134 64.2327 106.481 64.3127 106.894 64.3127C107.347 64.3127 107.727 64.2127 108.034 64.0127C108.354 63.8127 108.594 63.4727 108.754 62.9927C108.927 62.5127 109.014 61.8527 109.014 61.0127C109.014 60.226 108.921 59.5727 108.734 59.0527C108.561 58.5194 108.261 58.1194 107.834 57.8527C107.421 57.586 106.847 57.4527 106.114 57.4527C105.714 57.4527 105.301 57.4994 104.874 57.5927C104.447 57.6727 104.041 57.7794 103.654 57.9127C103.281 58.046 102.954 58.1927 102.674 58.3527V55.8527C102.967 55.6927 103.327 55.5527 103.754 55.4327C104.194 55.3127 104.667 55.2194 105.174 55.1527C105.681 55.086 106.181 55.0527 106.674 55.0527C107.967 55.0527 109.007 55.2927 109.794 55.7727C110.594 56.2394 111.174 56.906 111.534 57.7727C111.907 58.6394 112.094 59.666 112.094 60.8527C112.094 62.066 111.914 63.0994 111.554 63.9527C111.207 64.7927 110.654 65.4327 109.894 65.8727C109.134 66.3127 108.141 66.5327 106.914 66.5327ZM116.29 66.2727L113.11 55.3127H116.13L118.55 63.8527H118.67C118.883 63.8527 119.083 63.7927 119.27 63.6727C119.456 63.5527 119.616 63.3927 119.75 63.1927C120.016 62.8194 120.216 62.3794 120.35 61.8727C120.483 61.3527 120.55 60.8394 120.55 60.3327C120.55 59.4394 120.376 58.7527 120.03 58.2727C119.696 57.7927 119.23 57.5527 118.63 57.5527C118.51 57.5527 118.396 57.5594 118.29 57.5727C118.196 57.586 118.11 57.6127 118.03 57.6527L117.47 55.3527C117.776 55.2594 118.063 55.206 118.33 55.1927C118.61 55.166 118.836 55.1527 119.01 55.1527C119.716 55.1527 120.33 55.246 120.85 55.4327C121.37 55.6194 121.816 55.8994 122.19 56.2727C122.656 56.726 123.003 57.2927 123.23 57.9727C123.47 58.6527 123.59 59.4194 123.59 60.2727C123.59 61.3527 123.416 62.2994 123.07 63.1127C122.736 63.9127 122.33 64.546 121.85 65.0127C121.45 65.3994 120.943 65.706 120.33 65.9327C119.73 66.1594 118.903 66.2727 117.85 66.2727H116.29ZM130.495 66.5327C128.975 66.5327 127.822 66.1994 127.035 65.5327C126.262 64.8527 125.875 63.8794 125.875 62.6127V61.8327C125.875 61.286 125.935 60.8327 126.055 60.4727C126.189 60.1127 126.362 59.786 126.575 59.4927C126.789 59.1994 126.962 58.9394 127.095 58.7127C127.242 58.4727 127.315 58.226 127.315 57.9727C127.315 57.7327 127.255 57.566 127.135 57.4727C127.029 57.366 126.882 57.3127 126.695 57.3127C126.562 57.3127 126.422 57.3327 126.275 57.3727C126.142 57.4127 125.989 57.4727 125.815 57.5527L125.335 55.6727C125.709 55.4727 126.109 55.3394 126.535 55.2727C126.975 55.1927 127.362 55.1527 127.695 55.1527C128.282 55.1527 128.749 55.246 129.095 55.4327C129.455 55.6194 129.715 55.886 129.875 56.2327C130.035 56.5794 130.115 56.9927 130.115 57.4727C130.115 57.886 130.055 58.2527 129.935 58.5727C129.815 58.8794 129.662 59.1994 129.475 59.5327C129.302 59.8394 129.149 60.126 129.015 60.3927C128.895 60.6594 128.835 61.046 128.835 61.5527V62.3127C128.835 62.7527 128.895 63.1127 129.015 63.3927C129.149 63.6727 129.342 63.8794 129.595 64.0127C129.849 64.1327 130.149 64.1927 130.495 64.1927C131.069 64.1927 131.475 64.0394 131.715 63.7327C131.969 63.4127 132.095 62.986 132.095 62.4527V60.5127C132.095 60.1127 132.002 59.7994 131.815 59.5727C131.642 59.3327 131.342 59.2127 130.915 59.2127H130.815V57.6327H130.935C131.349 57.6327 131.655 57.5194 131.855 57.2927C132.055 57.066 132.182 56.7794 132.235 56.4327C132.302 56.0727 132.335 55.6994 132.335 55.3127H135.315C135.315 56.126 135.209 56.7994 134.995 57.3327C134.782 57.866 134.409 58.226 133.875 58.4127V58.4927C134.195 58.586 134.442 58.7327 134.615 58.9327C134.789 59.1194 134.909 59.346 134.975 59.6127C135.042 59.8794 135.075 60.1727 135.075 60.4927V62.5327C135.075 63.8527 134.689 64.8527 133.915 65.5327C133.142 66.1994 132.002 66.5327 130.495 66.5327ZM126.137 53.7927V52.5327L128.157 51.6927H135.297V53.7927H126.137ZM132.737 52.5727V50.3127H135.297V52.5727H132.737ZM138.928 66.2727L137.028 55.3127H139.948L140.488 59.1727C140.528 59.4927 140.575 59.9327 140.628 60.4927C140.695 61.0394 140.755 61.6794 140.808 62.4127H140.868C140.988 61.9194 141.095 61.4727 141.188 61.0727C141.281 60.6594 141.368 60.2927 141.448 59.9727C141.541 59.6394 141.621 59.3527 141.688 59.1127L142.768 55.3127H144.588L145.668 59.1127C145.735 59.3527 145.808 59.6394 145.888 59.9727C145.981 60.2927 146.075 60.6594 146.168 61.0727C146.275 61.4727 146.381 61.9194 146.488 62.4127H146.548C146.615 61.6794 146.668 61.0394 146.708 60.4927C146.761 59.9327 146.815 59.4927 146.868 59.1727L147.428 55.3127H150.328L148.448 66.2727H145.508L144.248 61.8127C144.115 61.2927 144.008 60.8194 143.928 60.3927C143.861 59.9527 143.795 59.506 143.728 59.0527H143.648C143.595 59.3594 143.541 59.6527 143.488 59.9327C143.448 60.2127 143.395 60.506 143.328 60.8127C143.261 61.106 143.175 61.4394 143.068 61.8127L141.788 66.2727H138.928Z" fill="black"/>
<path d="M1.93131 42.2727V35.7597C1.93131 34.1217 2.25631 32.8607 2.90631 31.9767C3.55631 31.0927 4.47931 30.4687 5.67531 30.1047L5.71431 29.9487L1.54131 28.4277V27.4137C1.54131 26.1397 1.91831 24.9697 2.67231 23.9037C3.42631 22.8377 4.53131 21.9927 5.98731 21.3687C7.46931 20.7187 9.26331 20.3937 11.3693 20.3937C13.3453 20.3937 15.0483 20.7057 16.4783 21.3297C17.9083 21.9277 19.0133 22.8377 19.7933 24.0597C20.5993 25.2557 21.0023 26.7767 21.0023 28.6227V42.2727H15.1523V28.9737C15.1523 27.6737 14.8013 26.6987 14.0993 26.0487C13.4233 25.3987 12.4613 25.0737 11.2133 25.0737C10.0173 25.0737 9.12031 25.3337 8.52231 25.8537C7.92431 26.3477 7.59931 26.9587 7.54731 27.6867L11.0183 29.2857L10.5893 31.8207C9.65331 31.8727 8.95131 32.2107 8.48331 32.8347C8.01531 33.4587 7.78131 34.3037 7.78131 35.3697V42.2727H1.93131ZM30.1292 29.6757C28.9332 29.6757 27.9842 29.4937 27.2822 29.1297C26.5802 28.7657 26.0732 28.2847 25.7612 27.6867C25.4492 27.0627 25.2932 26.4127 25.2932 25.7367C25.2932 25.2947 25.3582 24.8397 25.4882 24.3717C25.6182 23.8777 25.8132 23.3967 26.0732 22.9287L30.3242 23.4747C30.2722 23.6567 30.2202 23.8517 30.1682 24.0597C30.1422 24.2677 30.1292 24.4887 30.1292 24.7227C30.1292 25.0607 30.2332 25.3337 30.4412 25.5417C30.6492 25.7237 31.0132 25.8147 31.5332 25.8147H35.9402V29.6757H30.1292ZM30.1292 40.5957C28.9332 40.5957 27.9842 40.4137 27.2822 40.0497C26.5802 39.6857 26.0732 39.2047 25.7612 38.6067C25.4492 37.9827 25.2932 37.3327 25.2932 36.6567C25.2932 36.2147 25.3582 35.7597 25.4882 35.2917C25.6182 34.7977 25.8132 34.3167 26.0732 33.8487L30.3242 34.3947C30.2722 34.5767 30.2202 34.7717 30.1682 34.9797C30.1422 35.1877 30.1292 35.4087 30.1292 35.6427C30.1292 35.9807 30.2332 36.2537 30.4412 36.4617C30.6492 36.6437 31.0132 36.7347 31.5332 36.7347H35.9402V40.5957H30.1292ZM46.4468 42.6627C45.2768 42.6627 44.2888 42.4807 43.4828 42.1167C42.6768 41.7527 42.0658 41.2067 41.6498 40.4787C41.2338 39.7247 41.0258 38.7887 41.0258 37.6707V20.9007H46.8758V36.9687C46.8758 37.4627 46.9798 37.8267 47.1878 38.0607C47.4218 38.2947 47.7728 38.4117 48.2408 38.4117C48.4488 38.4117 48.6698 38.3857 48.9038 38.3337C49.1378 38.2817 49.3588 38.2167 49.5668 38.1387L50.1128 41.8827C49.6188 42.1427 49.0598 42.3377 48.4358 42.4677C47.8118 42.5977 47.1488 42.6627 46.4468 42.6627ZM55.3835 42.2727L51.6785 20.9007H57.3725L58.4255 28.4277C58.5035 29.0517 58.5945 29.9097 58.6985 31.0017C58.8285 32.0677 58.9455 33.3157 59.0495 34.7457H59.1665C59.4005 33.7837 59.6085 32.9127 59.7905 32.1327C59.9725 31.3267 60.1415 30.6117 60.2975 29.9877C60.4795 29.3377 60.6355 28.7787 60.7655 28.3107L62.8715 20.9007H66.4205L68.5266 28.3107C68.6566 28.7787 68.7996 29.3377 68.9556 29.9877C69.1376 30.6117 69.3196 31.3267 69.5016 32.1327C69.7096 32.9127 69.9175 33.7837 70.1255 34.7457H70.2426C70.3726 33.3157 70.4766 32.0677 70.5546 31.0017C70.6586 29.9097 70.7626 29.0517 70.8665 28.4277L71.9585 20.9007H77.6136L73.9476 42.2727H68.2145L65.7575 33.5757C65.4976 32.5617 65.2896 31.6387 65.1335 30.8067C65.0035 29.9487 64.8736 29.0777 64.7436 28.1937H64.5875C64.4835 28.7917 64.3795 29.3637 64.2755 29.9097C64.1975 30.4557 64.0935 31.0277 63.9635 31.6257C63.8335 32.1977 63.6645 32.8477 63.4565 33.5757L60.9606 42.2727H55.3835ZM88.8675 42.7797C87.3335 42.7797 85.7865 42.6107 84.2265 42.2727C82.6925 41.9347 81.3275 41.4537 80.1315 40.8297L81.7695 36.1887C82.2895 36.4747 82.9135 36.7737 83.6415 37.0857C84.3695 37.3977 85.1625 37.6577 86.0205 37.8657C86.8785 38.0737 87.7495 38.1777 88.6335 38.1777C89.6735 38.1777 90.4535 38.0347 90.9735 37.7487C91.5195 37.4367 91.7925 36.9687 91.7925 36.3447C91.7925 35.8767 91.6105 35.4997 91.2465 35.2137C90.9085 34.9017 90.4015 34.6157 89.7255 34.3557C89.0495 34.0697 88.2435 33.7707 87.3075 33.4587C85.9295 32.9647 84.7465 32.4317 83.7585 31.8597C82.7705 31.2877 82.0035 30.5857 81.4575 29.7537C80.9375 28.9217 80.6775 27.8817 80.6775 26.6337C80.6775 25.2037 81.0415 24.0337 81.7695 23.1237C82.4975 22.2137 83.5245 21.5377 84.8505 21.0957C86.1765 20.6277 87.7235 20.3937 89.4915 20.3937C90.9475 20.3937 92.2605 20.5107 93.4305 20.7447C94.6005 20.9787 95.5105 21.2777 96.1605 21.6417V26.2437C95.7185 26.0357 95.1335 25.8277 94.4055 25.6197C93.7035 25.4117 92.9365 25.2427 92.1045 25.1127C91.2985 24.9567 90.5185 24.8787 89.7645 24.8787C88.6985 24.8787 87.8925 25.0217 87.3465 25.3077C86.8005 25.5937 86.5275 25.9967 86.5275 26.5167C86.5275 26.9327 86.7095 27.2837 87.0735 27.5697C87.4635 27.8557 88.0225 28.1287 88.7505 28.3887C89.4785 28.6227 90.3495 28.9217 91.3635 29.2857C92.7155 29.7537 93.8595 30.2737 94.7955 30.8457C95.7315 31.4177 96.4335 32.1197 96.9015 32.9517C97.3955 33.7837 97.6425 34.8107 97.6425 36.0327C97.6425 37.2027 97.3695 38.3077 96.8235 39.3477C96.3035 40.3617 95.4065 41.1937 94.1325 41.8437C92.8585 42.4677 91.1035 42.7797 88.8675 42.7797ZM107.376 42.2727V28.1547C107.376 27.0627 107.116 26.2697 106.596 25.7757C106.102 25.2817 105.283 25.0347 104.139 25.0347C103.281 25.0347 102.488 25.1517 101.76 25.3857C101.058 25.6197 100.395 25.9057 99.771 26.2437V21.5637C100.343 21.3037 101.149 21.0437 102.189 20.7837C103.229 20.5237 104.451 20.3937 105.855 20.3937C107.285 20.3937 108.546 20.6017 109.638 21.0177C110.756 21.4337 111.627 22.1357 112.251 23.1237C112.901 24.0857 113.226 25.4117 113.226 27.1017V42.2727H107.376Z" fill="#207900"/>
</svg>
